<svg width="20" height="16" viewBox="0 0 20 16" fill="none" xmlns="http://www.w3.org/2000/svg">
<path d="M4.45415 15.27C3.17015 15.27 2.18615 14.892 1.50215 14.136C0.81815 13.38 0.47615 12.366 0.47615 11.094V4.488C0.47615 3.156 0.80615 2.112 1.46615 1.356C2.13815 0.588 3.13415 0.204 4.45415 0.204C5.77415 0.204 6.76415 0.588 7.42415 1.356C8.08415 2.112 8.41415 3.156 8.41415 4.488V11.094C8.41415 12.354 8.06615 13.368 7.37015 14.136C6.68615 14.892 5.71415 15.27 4.45415 15.27ZM4.45415 12.588C4.82615 12.588 5.06615 12.432 5.17415 12.12C5.29415 11.808 5.35415 11.442 5.35415 11.022V4.56C5.35415 4.08 5.30015 3.684 5.19215 3.372C5.09615 3.048 4.85015 2.886 4.45415 2.886C4.05815 2.886 3.80615 3.042 3.69815 3.354C3.60215 3.666 3.55415 4.068 3.55415 4.56V11.022C3.55415 12.066 3.85415 12.588 4.45415 12.588ZM11.2906 12.876L14.7826 7.512L14.9986 7.188C15.4546 6.504 15.7906 5.934 16.0066 5.478C16.2226 5.01 16.3306 4.524 16.3306 4.02C16.3306 3.612 16.2466 3.306 16.0786 3.102C15.9226 2.886 15.6946 2.778 15.3946 2.778C14.9386 2.778 14.6206 2.958 14.4406 3.318C14.2606 3.666 14.1706 4.152 14.1706 4.776V5.496H11.2546V4.722C11.2546 3.354 11.5846 2.262 12.2446 1.446C12.9166 0.629999 13.9486 0.221999 15.3406 0.221999C16.6246 0.221999 17.6026 0.557999 18.2746 1.23C18.9586 1.902 19.3006 2.85 19.3006 4.074C19.3006 4.626 19.2106 5.148 19.0306 5.64C18.8626 6.132 18.6586 6.576 18.4186 6.972C18.1786 7.368 17.8066 7.932 17.3026 8.664L14.6386 12.642H18.9046V15H11.2906V12.876Z" fill="white" fill-opacity="0.437245"/>
</svg>
