<svg width="20" height="16" viewBox="0 0 20 16" fill="none" xmlns="http://www.w3.org/2000/svg">
<path d="M4.40258 15.27C3.11858 15.27 2.13458 14.892 1.45058 14.136C0.766576 13.38 0.424576 12.366 0.424576 11.094V4.488C0.424576 3.156 0.754576 2.112 1.41458 1.356C2.08658 0.588 3.08258 0.204 4.40258 0.204C5.72258 0.204 6.71258 0.588 7.37258 1.356C8.03258 2.112 8.36258 3.156 8.36258 4.488V11.094C8.36258 12.354 8.01458 13.368 7.31858 14.136C6.63458 14.892 5.66258 15.27 4.40258 15.27ZM4.40258 12.588C4.77458 12.588 5.01458 12.432 5.12258 12.12C5.24258 11.808 5.30258 11.442 5.30258 11.022V4.56C5.30258 4.08 5.24858 3.684 5.14058 3.372C5.04458 3.048 4.79858 2.886 4.40258 2.886C4.00658 2.886 3.75458 3.042 3.64658 3.354C3.55058 3.666 3.50258 4.068 3.50258 4.56V11.022C3.50258 12.066 3.80258 12.588 4.40258 12.588ZM15.1991 15.27C13.7471 15.27 12.7151 14.874 12.1031 14.082C11.4911 13.29 11.1851 12.162 11.1851 10.698V10.176H14.1911V10.698C14.1911 11.442 14.2631 11.97 14.4071 12.282C14.5631 12.582 14.8451 12.732 15.2531 12.732C15.6371 12.732 15.8951 12.582 16.0271 12.282C16.1591 11.982 16.2251 11.484 16.2251 10.788C16.2251 10.02 16.1171 9.462 15.9011 9.114C15.6851 8.754 15.2831 8.568 14.6951 8.556H14.1371V6.486H14.6231C15.2351 6.486 15.6551 6.324 15.8831 6C16.1111 5.664 16.2251 5.112 16.2251 4.344C16.2251 3.756 16.1471 3.318 15.9911 3.03C15.8351 2.742 15.5591 2.598 15.1631 2.598C14.7911 2.598 14.5331 2.754 14.3891 3.066C14.2571 3.366 14.1911 3.81 14.1911 4.398V5.154H11.1851V4.272C11.1851 2.964 11.5331 1.962 12.2291 1.266C12.9371 0.558 13.9151 0.204 15.1631 0.204C16.4351 0.204 17.4251 0.539999 18.1331 1.212C18.8411 1.884 19.1951 2.862 19.1951 4.146C19.1951 4.974 19.0271 5.682 18.6911 6.27C18.3551 6.846 17.9291 7.206 17.4131 7.35C17.9651 7.554 18.3971 7.92 18.7091 8.448C19.0331 8.976 19.1951 9.732 19.1951 10.716C19.1951 12.132 18.8771 13.248 18.2411 14.064C17.6051 14.868 16.5911 15.27 15.1991 15.27Z" fill="white" fill-opacity="0.437245"/>
</svg>
