<svg width="108" height="49" viewBox="0 0 108 49" fill="none" xmlns="http://www.w3.org/2000/svg">
<g clip-path="url(#clip0_0_20)">
<rect x="1.59235" y="24" width="39.9334" height="2" fill="#4CAF50"/>
<path d="M12.4906 39.54C9.92264 39.54 7.95464 38.784 6.58664 37.272C5.21864 35.76 4.53464 33.732 4.53464 31.188V17.976C4.53464 15.312 5.19464 13.224 6.51464 11.712C7.85864 10.176 9.85064 9.408 12.4906 9.408C15.1306 9.408 17.1106 10.176 18.4306 11.712C19.7506 13.224 20.4106 15.312 20.4106 17.976V31.188C20.4106 33.708 19.7146 35.736 18.3226 37.272C16.9546 38.784 15.0106 39.54 12.4906 39.54ZM12.4906 34.176C13.2346 34.176 13.7146 33.864 13.9306 33.24C14.1706 32.616 14.2906 31.884 14.2906 31.044V18.12C14.2906 17.16 14.1826 16.368 13.9666 15.744C13.7746 15.096 13.2826 14.772 12.4906 14.772C11.6986 14.772 11.1946 15.084 10.9786 15.708C10.7866 16.332 10.6906 17.136 10.6906 18.12V31.044C10.6906 33.132 11.2906 34.176 12.4906 34.176ZM29.4756 15.78C29.2116 15.924 28.5156 16.236 27.3876 16.716C27.1956 16.788 26.8956 16.908 26.4876 17.076C26.0796 17.244 25.7436 17.4 25.4796 17.544V13.08C28.3596 11.592 30.1236 10.512 30.7716 9.84H35.4876V39H29.4756V15.78Z" fill="white"/>
<rect x="0.593994" y="24" width="9.98336" height="2" fill="#4CAF50"/>
<path d="M59.4542 39.27C58.1702 39.27 57.1862 38.892 56.5022 38.136C55.8182 37.38 55.4762 36.366 55.4762 35.094V28.488C55.4762 27.156 55.8062 26.112 56.4662 25.356C57.1382 24.588 58.1342 24.204 59.4542 24.204C60.7742 24.204 61.7642 24.588 62.4242 25.356C63.0842 26.112 63.4142 27.156 63.4142 28.488V35.094C63.4142 36.354 63.0662 37.368 62.3702 38.136C61.6862 38.892 60.7142 39.27 59.4542 39.27ZM59.4542 36.588C59.8262 36.588 60.0662 36.432 60.1742 36.12C60.2942 35.808 60.3542 35.442 60.3542 35.022V28.56C60.3542 28.08 60.3002 27.684 60.1922 27.372C60.0962 27.048 59.8502 26.886 59.4542 26.886C59.0582 26.886 58.8062 27.042 58.6982 27.354C58.6022 27.666 58.5542 28.068 58.5542 28.56V35.022C58.5542 36.066 58.8542 36.588 59.4542 36.588ZM66.2906 36.876L69.7826 31.512L69.9986 31.188C70.4546 30.504 70.7906 29.934 71.0066 29.478C71.2226 29.01 71.3306 28.524 71.3306 28.02C71.3306 27.612 71.2466 27.306 71.0786 27.102C70.9226 26.886 70.6946 26.778 70.3946 26.778C69.9386 26.778 69.6206 26.958 69.4406 27.318C69.2606 27.666 69.1706 28.152 69.1706 28.776V29.496H66.2546V28.722C66.2546 27.354 66.5846 26.262 67.2446 25.446C67.9166 24.63 68.9486 24.222 70.3406 24.222C71.6246 24.222 72.6026 24.558 73.2746 25.23C73.9586 25.902 74.3006 26.85 74.3006 28.074C74.3006 28.626 74.2106 29.148 74.0306 29.64C73.8626 30.132 73.6586 30.576 73.4186 30.972C73.1786 31.368 72.8066 31.932 72.3026 32.664L69.6386 36.642H73.9046V39H66.2906V36.876Z" fill="white" fill-opacity="0.437245"/>
<path d="M90.4026 39.27C89.1186 39.27 88.1346 38.892 87.4506 38.136C86.7666 37.38 86.4246 36.366 86.4246 35.094V28.488C86.4246 27.156 86.7546 26.112 87.4146 25.356C88.0866 24.588 89.0826 24.204 90.4026 24.204C91.7226 24.204 92.7126 24.588 93.3726 25.356C94.0326 26.112 94.3626 27.156 94.3626 28.488V35.094C94.3626 36.354 94.0146 37.368 93.3186 38.136C92.6346 38.892 91.6626 39.27 90.4026 39.27ZM90.4026 36.588C90.7746 36.588 91.0146 36.432 91.1226 36.12C91.2426 35.808 91.3026 35.442 91.3026 35.022V28.56C91.3026 28.08 91.2486 27.684 91.1406 27.372C91.0446 27.048 90.7986 26.886 90.4026 26.886C90.0066 26.886 89.7546 27.042 89.6466 27.354C89.5506 27.666 89.5026 28.068 89.5026 28.56V35.022C89.5026 36.066 89.8026 36.588 90.4026 36.588ZM101.199 39.27C99.7471 39.27 98.7151 38.874 98.1031 38.082C97.4911 37.29 97.1851 36.162 97.1851 34.698V34.176H100.191V34.698C100.191 35.442 100.263 35.97 100.407 36.282C100.563 36.582 100.845 36.732 101.253 36.732C101.637 36.732 101.895 36.582 102.027 36.282C102.159 35.982 102.225 35.484 102.225 34.788C102.225 34.02 102.117 33.462 101.901 33.114C101.685 32.754 101.283 32.568 100.695 32.556H100.137V30.486H100.623C101.235 30.486 101.655 30.324 101.883 30C102.111 29.664 102.225 29.112 102.225 28.344C102.225 27.756 102.147 27.318 101.991 27.03C101.835 26.742 101.559 26.598 101.163 26.598C100.791 26.598 100.533 26.754 100.389 27.066C100.257 27.366 100.191 27.81 100.191 28.398V29.154H97.1851V28.272C97.1851 26.964 97.5331 25.962 98.2291 25.266C98.9371 24.558 99.9151 24.204 101.163 24.204C102.435 24.204 103.425 24.54 104.133 25.212C104.841 25.884 105.195 26.862 105.195 28.146C105.195 28.974 105.027 29.682 104.691 30.27C104.355 30.846 103.929 31.206 103.413 31.35C103.965 31.554 104.397 31.92 104.709 32.448C105.033 32.976 105.195 33.732 105.195 34.716C105.195 36.132 104.877 37.248 104.241 38.064C103.605 38.868 102.591 39.27 101.199 39.27Z" fill="white" fill-opacity="0.437245"/>
</g>
<defs>
<clipPath id="clip0_0_20">
<rect width="107" height="49" fill="white" transform="translate(0.593994)"/>
</clipPath>
</defs>
</svg>
